<svg width="99" height="26" viewBox="0 0 99 26" fill="none" xmlns="http://www.w3.org/2000/svg">
<path d="M25.1641 11.1957C25.1641 11.6324 25.5375 11.9749 25.9708 11.9357L33.4174 11.2615C33.8507 11.2223 34.2241 11.5648 34.2241 12.0015V14.9103C34.2241 15.3038 33.9186 15.629 33.5273 15.6521L25.8608 16.1048C25.4696 16.1279 25.1641 16.4531 25.1641 16.8465V20.1611C25.1641 20.5796 25.5082 20.9155 25.9249 20.9039L34.6358 20.661C35.0525 20.6494 35.3965 20.9853 35.3965 21.4037V22.8153C35.3965 23.4335 35.1833 23.9566 34.757 24.3846C34.3307 24.8364 33.8096 25.0623 33.1937 25.0623H21.0723C20.6635 25.0623 20.3321 24.7296 20.3321 24.3192V5.26832C20.3321 4.89948 20.6017 4.58648 20.9652 4.53311L34.5492 2.53916C34.9959 2.4736 35.3965 2.82121 35.3965 3.27437V6.2102C35.3965 6.58784 35.1143 6.90541 34.7406 6.9484L25.82 7.97446C25.4463 8.01745 25.1641 8.33502 25.1641 8.71266V11.1957Z" fill="#3F5466"/>
<path fill-rule="evenodd" clip-rule="evenodd" d="M0 5.26058C0 5.20392 0.00636412 5.14856 0.0184591 5.09525C-0.0123762 4.88211 0.0183117 4.65533 0.125746 4.43964L2.03022 0.616104C2.43939 -0.205366 3.6072 -0.205369 4.01636 0.616102L5.57212 3.73953L9.41524 3.1281C9.49046 3.113 9.57881 3.10029 9.6803 3.08999L10.9125 0.616104C11.3217 -0.205366 12.4895 -0.205369 12.8987 0.616102L14.8031 4.43964C14.8628 4.55948 14.8988 4.68273 14.9137 4.80517C15.3922 5.26258 15.7977 5.79729 16.1303 6.40931C16.6987 7.45549 16.983 8.64433 16.983 9.97584C16.983 11.4976 16.604 12.9242 15.846 14.2557C15.224 15.3289 14.4424 16.21 13.5013 16.8989C13.1627 17.1467 13.0501 17.6163 13.2773 17.9697L17.0992 23.9164C17.417 24.4108 17.0634 25.0623 16.4772 25.0623H12.5881C12.3185 25.0623 12.0701 24.915 11.9399 24.678L8.74948 18.8692C8.61328 18.6213 8.34852 18.4725 8.06674 18.4858L5.43103 18.6094C5.03609 18.6279 4.72538 18.9547 4.72538 19.3516V22.637C4.72538 23.3028 4.48852 23.8734 4.0148 24.3489C3.54108 24.8245 2.97261 25.0623 2.3094 25.0623H0.740191C0.331395 25.0623 0 24.7296 0 24.3192V5.26058ZM9.41524 14.113C10.2679 14.0417 10.9312 13.6613 11.4049 12.9717C11.9023 12.2822 12.151 11.45 12.151 10.4751C12.151 9.5003 11.9023 8.72755 11.4049 8.15691C10.9312 7.56248 10.2679 7.32471 9.41524 7.4436L5.37651 7.93502C5.00488 7.98024 4.72538 8.29686 4.72538 8.67264V13.6682C4.72538 14.1007 5.09189 14.4418 5.52149 14.4091L9.41524 14.113Z" fill="#3F5466"/>
<path d="M51.8968 3.91274C51.4941 4.38827 51.2928 4.93514 51.2928 5.55334V13.6069C51.2928 14.3549 50.3158 14.6341 49.9234 13.9981L44.0755 4.52187C43.9263 4.28014 43.6528 4.14507 43.371 4.17398L39.6291 4.55783C39.2514 4.59657 38.9642 4.91589 38.9642 5.29701V24.3192C38.9642 24.7296 39.2956 25.0623 39.7043 25.0623H43.0915C43.5003 25.0623 43.8317 24.7296 43.8317 24.3192V15.4292C43.8317 14.6765 44.8186 14.4009 45.2057 15.0456L51.0059 24.7029C51.1398 24.9259 51.3803 25.0623 51.6398 25.0623H56.0596C56.4684 25.0623 56.7998 24.7296 56.7998 24.3192V3.59771C56.7998 3.15625 56.4186 2.81215 55.9813 2.85885L53.4601 3.1281C52.8442 3.17565 52.3231 3.4372 51.8968 3.91274Z" fill="#3F5466"/>
<path d="M75.4447 3.09761C75.879 3.05657 76.2543 3.39949 76.2543 3.83736V6.67899C76.2543 7.0694 75.9533 7.39323 75.5653 7.42024L70.7967 7.75228C70.4087 7.77929 70.1077 8.10312 70.1077 8.49352V22.851C70.1077 23.4454 69.8946 23.9566 69.4682 24.3846C69.0655 24.8126 68.5563 25.0266 67.9404 25.0266H65.6607C65.2519 25.0266 64.9205 24.6939 64.9205 24.2836V9.02444C64.9205 8.59389 64.5571 8.25347 64.1292 8.28319L60.0626 8.5656C59.6347 8.59532 59.2713 8.2549 59.2713 7.82435V5.3024C59.2713 4.91902 59.5619 4.59858 59.9421 4.56265L75.4447 3.09761Z" fill="#3F5466"/>
<path d="M84.5694 12.0119C84.5694 11.6456 84.2111 11.3648 83.812 11.4181L81.0407 11.7887C80.7163 11.8321 80.476 12.0847 80.476 12.3824V24.3999C80.476 24.7313 80.772 25 81.1371 25H82.3799C82.9934 25 83.5117 24.7984 83.9348 24.3951C84.3579 24.011 84.5694 23.5501 84.5694 23.0123V12.0119Z" fill="#3F5466"/>
<path d="M80.9202 4.893C80.3067 5.48834 80 6.15089 80 6.88066C80 7.43759 80.1904 7.89849 80.5712 8.26337C80.9731 8.62826 81.4597 8.8107 82.0308 8.8107C82.8347 8.8107 83.5434 8.52263 84.1569 7.9465C84.7704 7.37037 85.0771 6.70782 85.0771 5.95885C85.0771 5.38272 84.8761 4.91221 84.4742 4.54732C84.0934 4.18244 83.6069 4 83.0145 4C82.2318 4 81.5337 4.29767 80.9202 4.893Z" fill="#3F5466"/>
<path d="M98.8853 23.6053C98.9522 23.8813 98.7981 24.1628 98.5043 24.2561C97.9968 24.4171 97.3053 24.5883 96.4297 24.7695L95.6681 24.9424C95.5201 24.9808 95.2556 25 94.8748 25C94.4094 25 93.9335 24.9424 93.4469 24.8272C92.9815 24.7119 92.5796 24.5391 92.2411 24.3086C90.7603 23.2524 89.9987 21.5912 89.9564 19.3251V16.4415C89.9564 16.0877 89.621 15.8107 89.2331 15.844L88.3316 15.9214C87.9436 15.9547 87.6082 15.6777 87.6082 15.324V13.5552C87.6082 13.2487 87.8626 12.9915 88.1983 12.9586L89.3664 12.8439C89.702 12.811 89.9564 12.5537 89.9564 12.2473V9.01787C89.9564 8.71768 90.2007 8.46366 90.5284 8.42321L93.1727 8.09673C93.5696 8.04774 93.9229 8.32781 93.9229 8.6914V11.6783C93.9229 12.0378 94.2687 12.3166 94.6619 12.2742L98.261 11.8863C98.6542 11.8439 99 12.1227 99 12.4822V13.5062C99 13.9287 98.8413 14.2936 98.524 14.6008C98.2279 14.9081 97.8471 15.0809 97.3817 15.1193L94.5176 15.3817C94.1799 15.4127 93.9229 15.6707 93.9229 15.9788V18.8642C93.9229 19.4211 94.0181 19.93 94.2085 20.3909C94.3989 20.8326 94.6633 21.1687 95.0018 21.3992C95.1075 21.4568 95.2556 21.4856 95.446 21.4856C95.7845 21.4856 96.2287 21.428 96.7788 21.3128C97.054 21.248 97.3097 21.1854 97.5456 21.1251C97.9194 21.0295 98.3104 21.2348 98.3939 21.5791L98.8853 23.6053Z" fill="#3F5466"/>
</svg>
